<svg width="164" height="28" viewBox="0 0 164 28" fill="none" xmlns="http://www.w3.org/2000/svg">
<path d="M5.922 13.91H17.346V18.33H5.922V13.91ZM6.33 27H0.822V3.2H18.808V7.62H6.33V27ZM29.4492 27.272C27.9305 27.272 26.5705 26.9773 25.3692 26.388C24.1905 25.7987 23.2725 24.9033 22.6152 23.702C21.9579 22.478 21.6292 20.9253 21.6292 19.044V8.708H26.9332V18.262C26.9332 19.7807 27.2505 20.9027 27.8852 21.628C28.5425 22.3307 29.4605 22.682 30.6392 22.682C31.4552 22.682 32.1805 22.512 32.8152 22.172C33.4499 21.8093 33.9485 21.2653 34.3112 20.54C34.6739 19.792 34.8552 18.8627 34.8552 17.752V8.708H40.1592V27H35.1272V21.968L36.0452 23.43C35.4332 24.6993 34.5265 25.6627 33.3252 26.32C32.1465 26.9547 30.8545 27.272 29.4492 27.272ZM45.073 27V8.708H50.139V13.876L49.425 12.38C49.969 11.088 50.8417 10.1133 52.043 9.456C53.2443 8.776 54.7063 8.436 56.429 8.436V13.332C56.2023 13.3093 55.9983 13.298 55.817 13.298C55.6357 13.2753 55.443 13.264 55.239 13.264C53.7883 13.264 52.6097 13.6833 51.703 14.522C50.819 15.338 50.377 16.6187 50.377 18.364V27H45.073ZM70.734 8.436C72.1846 8.436 73.4766 8.73067 74.61 9.32C75.766 9.88667 76.6726 10.7707 77.33 11.972C77.9873 13.1507 78.316 14.6693 78.316 16.528V27H73.012V17.344C73.012 15.8707 72.6833 14.7827 72.026 14.08C71.3913 13.3773 70.4846 13.026 69.306 13.026C68.4673 13.026 67.708 13.2073 67.028 13.57C66.3706 13.91 65.8493 14.4427 65.464 15.168C65.1013 15.8933 64.92 16.8227 64.92 17.956V27H59.616V8.708H64.682V13.774L63.73 12.244C64.3873 11.02 65.328 10.0793 66.552 9.422C67.776 8.76467 69.17 8.436 70.734 8.436ZM83.1238 27V8.708H88.4278V27H83.1238ZM85.7758 6.158C84.8011 6.158 84.0078 5.87467 83.3958 5.308C82.7838 4.74133 82.4778 4.03867 82.4778 3.2C82.4778 2.36133 82.7838 1.65867 83.3958 1.092C84.0078 0.525332 84.8011 0.241998 85.7758 0.241998C86.7504 0.241998 87.5438 0.513999 88.1558 1.058C88.7678 1.57933 89.0738 2.25933 89.0738 3.098C89.0738 3.982 88.7678 4.71867 88.1558 5.308C87.5664 5.87467 86.7731 6.158 85.7758 6.158ZM100.83 27.272C98.677 27.272 96.9997 26.728 95.7983 25.64C94.597 24.5293 93.9963 22.886 93.9963 20.71V4.662H99.3003V20.642C99.3003 21.4127 99.5043 22.0133 99.9123 22.444C100.32 22.852 100.876 23.056 101.578 23.056C102.417 23.056 103.131 22.8293 103.72 22.376L105.148 26.116C104.604 26.5013 103.947 26.796 103.176 27C102.428 27.1813 101.646 27.272 100.83 27.272ZM91.1743 13.196V9.116H103.856V13.196H91.1743ZM115.844 27.272C114.325 27.272 112.965 26.9773 111.764 26.388C110.585 25.7987 109.667 24.9033 109.01 23.702C108.352 22.478 108.024 20.9253 108.024 19.044V8.708H113.328V18.262C113.328 19.7807 113.645 20.9027 114.28 21.628C114.937 22.3307 115.855 22.682 117.034 22.682C117.85 22.682 118.575 22.512 119.21 22.172C119.844 21.8093 120.343 21.2653 120.706 20.54C121.068 19.792 121.25 18.8627 121.25 17.752V8.708H126.554V27H121.522V21.968L122.44 23.43C121.828 24.6993 120.921 25.6627 119.72 26.32C118.541 26.9547 117.249 27.272 115.844 27.272ZM131.468 27V8.708H136.534V13.876L135.82 12.38C136.364 11.088 137.236 10.1133 138.438 9.456C139.639 8.776 141.101 8.436 142.824 8.436V13.332C142.597 13.3093 142.393 13.298 142.212 13.298C142.03 13.2753 141.838 13.264 141.634 13.264C140.183 13.264 139.004 13.6833 138.098 14.522C137.214 15.338 136.772 16.6187 136.772 18.364V27H131.468ZM154.922 27.272C152.837 27.272 151.001 26.864 149.414 26.048C147.85 25.232 146.638 24.1213 145.776 22.716C144.915 21.288 144.484 19.6673 144.484 17.854C144.484 16.018 144.904 14.3973 145.742 12.992C146.604 11.564 147.771 10.4533 149.244 9.66C150.718 8.844 152.384 8.436 154.242 8.436C156.033 8.436 157.642 8.82133 159.07 9.592C160.521 10.34 161.666 11.428 162.504 12.856C163.343 14.2613 163.762 15.95 163.762 17.922C163.762 18.126 163.751 18.364 163.728 18.636C163.706 18.8853 163.683 19.1233 163.66 19.35H148.802V16.256H160.872L158.832 17.174C158.832 16.222 158.64 15.3947 158.254 14.692C157.869 13.9893 157.336 13.4453 156.656 13.06C155.976 12.652 155.183 12.448 154.276 12.448C153.37 12.448 152.565 12.652 151.862 13.06C151.182 13.4453 150.65 14.0007 150.264 14.726C149.879 15.4287 149.686 16.2673 149.686 17.242V18.058C149.686 19.0553 149.902 19.9393 150.332 20.71C150.786 21.458 151.409 22.036 152.202 22.444C153.018 22.8293 153.97 23.022 155.058 23.022C156.033 23.022 156.883 22.8747 157.608 22.58C158.356 22.2853 159.036 21.8433 159.648 21.254L162.47 24.314C161.632 25.266 160.578 26.0027 159.308 26.524C158.039 27.0227 156.577 27.272 154.922 27.272Z" fill="#054C73"/>
</svg>
